<?xml version="1.0" encoding="utf-8"?>
<!-- Generator: Adobe Illustrator 21.0.0, SVG Export Plug-In . SVG Version: 6.00 Build 0)  -->
<svg version="1.1" id="Calque_1" xmlns="http://www.w3.org/2000/svg" xmlns:xlink="http://www.w3.org/1999/xlink" x="0px" y="0px"
	 viewBox="0 0 1388.7 492.5" style="enable-background:new 0 0 1388.7 492.5;" xml:space="preserve">
<style type="text/css">
	.st0{fill:#43BFEF;}
	.st1{fill:#19355B;}
</style>
<g>
	<g>
		<g>
			<path class="st0" d="M2368.9-192.7C2368.8-192.7,2368.8-192.7,2368.9-192.7l-0.1,0l0,0C2368.8-192.7,2368.9-192.7,2368.9-192.7
				C2368.9-192.6,2368.9-192.7,2368.9-192.7z M2351.2-175.4c0.1,0.1,0.2,0.2,0.3,0.2c0,0,0.1,0,0.1,0.1c0-0.1,0.1-0.1,0.1-0.2
				C2351.5-175.3,2351.3-175.4,2351.2-175.4z"/>
			<path class="st0" d="M2368.8-192.7c0,0,0.1,0,0.2,0v0.1C2369-192.7,2368.9-192.7,2368.8-192.7
				C2368.8-192.7,2368.8-192.7,2368.8-192.7z"/>
			<path class="st0" d="M2383-190.9c2.1,2.2,1.7,5.3-0.2,7.7c-1.4,1.7-3.7,2.1-5.4,0.7c-2.1-1.7-5.6-2.4-3.8-7.1
				c1.5-3.9-2.1-3.4-4.6-3.2c0-1.2,0.1-2.4,0.1-3.6c1.2-0.6,2.3-1.2,3.5-1.7c-0.1,2.5,0.7,4,3.5,2.9c1-0.4,3.4,0.2,2.6-2.1
				c-0.3-0.8-1.9-1.1-2.9-1.6c4.6-1.7,8.5-2.1,9,4.4C2383.1-193.9,2379.1-194.8,2383-190.9z"/>
			<path class="st0" d="M2115.7-25c-1,2.2-2,4.5-2.9,6.7c-3.2,1.8-6.8,3.6-11.2,5.2c0.7-0.9,1.4-1.7,2.1-2.4c0.3-0.4,0.7-0.7,1-1.1
				c0.8-0.9,1.6-1.6,2.4-2.4c0.5-0.5,1-0.9,1.5-1.3c0.6-0.5,1.1-0.9,1.7-1.3C2112.1-22.9,2113.9-24,2115.7-25z"/>
			<path class="st0" d="M1980.1,174.4c-2.5,3.8-0.2,9.4-5.4,13.1c-0.1-6.6,0.3-12.2,2.9-17.4
				C1978.3,171.6,1977.7,173.8,1980.1,174.4z"/>
			<path class="st0" d="M2351.6-175.3c0,0.1,0,0.1,0,0.2C2351.6-175.2,2351.5-175.2,2351.6-175.3L2351.6-175.3z"/>
			<path class="st0" d="M2348.1-168.4c-0.3,0.3-0.5,0.6-0.8,0.8l0,0c-0.2,0-0.4,0-0.6-0.1c-0.8-0.1-1.8,0-2.6-0.1
				c-0.1,0-0.2,0-0.3,0c-0.1,0-0.3,0-0.4-0.1c-0.1-0.1-0.3-0.1-0.4-0.2c-0.2-0.1-0.3-0.1-0.5-0.3c-0.1-0.1-0.2-0.2-0.3-0.3
				c0,0,0,0-0.1-0.1c-0.1-0.1-0.1-0.3-0.2-0.5c0,0,0,0,0,0c-0.1-0.2-0.1-0.4-0.1-0.7c-0.3-2.9,3-2.7,5-3.4c1.6-0.6,4.1,0.8,4.7-2
				C2355.4-170.4,2349.4-170.6,2348.1-168.4z"/>
			<path class="st0" d="M2358.4-168.4c-0.5,1.2-1.1,2.4-1.6,3.6c-3.5,0.3-6.5-1.1-9.4-2.8c0.2-0.3,0.5-0.5,0.8-0.8
				C2351.6-168.4,2355-168.4,2358.4-168.4z"/>
			<path class="st0" d="M2376-195.2c-2.8,1.2-3.6-0.3-3.5-2.9c1.1-0.3,2.1-0.6,3.2-0.9c1,0.5,2.6,0.8,2.9,1.6
				C2379.4-195,2377.1-195.6,2376-195.2z"/>
			<path class="st0" d="M2369-196.3c0,1.2,0,2.4-0.1,3.6v0.1c-0.1,0-0.1,0-0.2,0c-1.9-0.3-4.5-0.8-4.4-2.5
				C2364.6-197.6,2367.4-196.1,2369-196.3z"/>
			<path class="st0" d="M2145.9-109.6c9.1-7.2,18.5-13.7,28.1-20.3c20-29.1,41.8-55.4,65.2-78.6C2058.9-132.4,1932,46.2,1932,253.9
				c0,2.1,0,4.1,0.1,6.2c27.1-15.6,57.5-29.8,90.7-42.6c0.4-7.3-4.3-10.7-13.5-10.2c-2.3,0.1-4.6,0.6-6.9,0.8
				c-5.5,0.6-8.7,1-7.6-7.4c1-7.2,2-14,3.9-21.1c3.2-11.5-6.7-6.3-11.7-7.3c-0.6,0.9-1.4,1.2-2.4,0.5c-1.5,0.5-3,1-4.4,1.5
				c-2.5,3.8-0.3,9.4-5.4,13.1c-0.1-6.6,0.3-12.2,2.9-17.5c2.9-18.2,7.8-35.9,12.9-53.5c0.7-2.2,1.2-4.7,4.3-4.8
				c5.9-0.2,10.7,3.7,16.8,3.7c6.7,0,8.3,6.1,10.8,11.8c2.4,5.3,4.6,11,8,16c2.2,3.3,4.1,8.2,9.2,5.8c4.4-2,2.8-6.3,1.9-10
				c-1.6-6.9-5.2-13-8.2-19.3c-6.3-13.3-5.3-16.9,5.5-26.4c7.8-6.8,16.6-12.4,23.7-20.2c3.7-4.1,4.4-9.1,2.7-11.4
				c-4.1-5.8,0.2-10.8,0.2-16.3c1,3.8,2,7.5,3.6,13.2c6.6-13.3,13.4-25.3,25.6-30.2c5.6-15.9,11.6-31.5,18.2-46.8
				c-3.2,1.8-6.8,3.6-11.2,5.2c0.7-0.9,1.4-1.7,2.1-2.4c0.3-0.4,0.7-0.7,1-1.1c0.8-0.9,1.6-1.6,2.4-2.4c0.5-0.5,1-0.9,1.5-1.3
				c0.6-0.5,1.1-0.9,1.7-1.3c1.8-1.3,3.6-2.4,5.5-3.4c6.9-15.8,14.5-31.1,22.5-46.1c3.1-5.9,6.4-11.7,9.7-17.4
				c-1.3-1.1-2.5-2.1-3.6-3.7c-2.2-3.2-8.4-5-7.5-8.6C2137.7-104.3,2142.5-106.9,2145.9-109.6z M2693.1-175.3
				C2670.7-122,2599.1-61.4,2513,11c-0.1,1.3,0.1,2.7,0.1,4c0.2,4.5-1.9,6.3-6.4,6.1c-1.8-0.1-3.6-0.2-5.4-0.3
				c-12.9,10.9-25.9,21.8-38.8,32.8c0.1,0.2,0.3,0.4,0.5,0.5c6.3,2.3,0,10.3,5.1,12.3c4.2,1.7,9.8-0.9,13.5,4c1.3,1.8,3.7,4,5.9,3.2
				c10.9-4.4,25-2.5,31.6-15.6c2.5-0.7,2.9-1.9,0.9-3.6c0.1-1.1,0.1-2.3,0.2-3.5c1.9-1.5,0.5-3.8,1.1-5.5c0.4-0.3,0.6-0.7,0.8-1.2
				c3.5,0,5.1-1.7,5.1-5.2c3.1-1.7,6-3.9,9.3-4.8c3.4-1,5-2.4,4.3-6.1c-1.1-6.1,2.5-7.2,7.3-6.1c8,1.7,15.4,1.6,22.1-4
				c4.6-3.8,9.2-2.3,11.6,2.6c5.4,10.6,15.2,16.2,24.9,21.4c7.1,3.8,11.4,7.8,9.7,16.3c7.5-3.3,7.5-3.4,5.6-10.1
				c-2.2-7.5,4-3.5,7.9-5.3c-7.3-4.1-13.5-8.2-20.2-11.3c-7.6-3.6-10.9-10.6-14.4-17.3c-1.1-2.1-0.8-4.7,1.4-6.3
				c2.3-1.6,3.2,0.8,4.9,1.4c11.3,4.4,16.4,17.5,29.6,19.8c8,1.4,5.5,11.2,8,17c1.2,2.8,1.3,5.3,4.5,7c3.2,1.8,4.2,5.4,4.3,9
				c0.1,2.7,0.7,5.6,3,7c2.6,1.6,6.5,6,7.6-1.9c0.3-1.9,0.3-5.7,5.3-6.3c4.6-0.5,1.4-4-0.6-5.1c-4.6-2.4-6.1-6.6-7.7-10.9
				c10.8-2.9,21.6-5.7,30.2-12.7c1.5-1.2,4.4-5.8,4.9-8.9c1.1-7.3,8-10.3,10.5-16.5c2.6-6.3,14.5-7.6,19.6-2.9
				c2.6,2.4-3.3,2.6-1.1,6.2c5.2,8.1,7.8,8.4,19-0.6c-1.9-1-3.6-2.1-5.4-2.8c-1.9-0.8-3.9-1.1-6.3-1.9c6.9-4,14.4-4,21.3-6.5
				c0.5,2.6-1.7,3-2.5,4.3c-6.7,10.7-6.3,12,5,17.9c4.2,2.2,8.3,4.2,12.6,6.2c5.4,2.4,5.7,7.4,5.4,11.9c-0.3,4.2-5,2.8-7.8,3.6
				c-5.8,1.5-11-0.6-15.8-3.6c-7.7-4.8-15.6-6.1-24.1-2.3c-5,2.2-10.1,2.2-15.3,0.7c-3.1-0.9-6.8-3.9-9.6,1.6
				c-0.9,1.7-4.3,0-6.5-0.6c-7.9-2.4-9.2-1.4-8.5,7.1c0.3,3.9,0.4,7.3-2.5,10.6c-3.6,4.1-2.3,9.5,0.5,12.8c2.6,3,5,6.6,11.2,6.8
				c12.7,0.4,25-1.6,37.4-3.1c7.3-0.9,8.8,2,7.6,8.4c-1.6,8.3-2.7,16.7-7.9,23.8c-3.4,4.6-7.3,8.3-13,3.6c-4-3.3-9.2-2.2-11.8-0.5
				c-11.2,7.5-21,0.2-30.7-2.5c-5.1-1.4-10.7-3.7-15.7-6.7c-6.7-4-14.5,0.4-15.5,8.1c-0.8,6.9-4.5,7.2-9.8,6.1
				c-4.7-1-8.6-3.6-12.5-6.2c-9.3-6-18.1-12.9-29.5-14.8c-3.1-0.5-6.7-2.9-4.6-6.8c3.3-6.2,0.7-13,4.2-20.7
				c-25,5-50.3-2.3-72.7,11.6c-4.6,2.8-9.9,3.3-15.3,2.3c-8.1-1.5-14.5,1.5-20.7,6.9c-9.4,8.2-17.9,16.3-20.2,29.4
				c-0.9,5.3-5.8,8.6-10.2,11.6c-9.3,6.3-16.1,14.3-18.4,25.6c-0.4,2-1.1,4.1-2.3,5.7c-5.6,7.2-8.9,14.6-9.4,22.5
				c30.1-0.5,60.8,0.1,91.5,0.7c86.5,1.9,169.4,14.6,245.6,34c-4.5-11.6-16.3-20.7-12.3-35.1c0.3-1.1-0.5-3-1.3-4
				c-10-10.8-10.9-26-18.6-37.8c-4.4-6.8,4.8-6.4,5.1-10.9c6.4,14,14.7,26.7,20.6,40.6c3.9,9.3,7.8,18.2,14.3,25.9
				c6.7,8.1,11,16.9,13,26.8c14.6,4,29,8.3,43.1,12.7c5.5-3.3,10.6-7.4,15.2-12.4c6.3-7,15.9-9.7,23.1-15.7c3.7-3.1,7.4-5.9,7.7-11
				c0.4-5,5.6-6.5,7.4-10.9c3.3-8.2,1.9-14.4-5-19.2c-5.2-3.6-9.5-7.1-11.5-13.6c-1.8-5.9-5.3-4.8-8.5-0.4
				c-12.8,17.7-14.9,17.5-25.8-1.6c-3.3-5.8-7.1-11.4-10.2-17.3c-1.8-3.4-3.4-6.4,1.1-10.5c6.3-5.6,8.7-4.4,11.2,2.7
				c1.5,4.4,3.9,8.4,7.2,11.9c5.1,5.5,10.9,7.7,17.9,3.4c3.4-2,7.5-2.4,9.2,1.4c4.2,9.1,12.5,10.1,20.5,10.7c5.9,0.5,7.2,3.3,8,8.1
				c6.1,35,9.1,68.8,9,101.5c12.9,5.1,25.5,10.4,37.8,15.8c0.3-7.2,0.5-14.5,0.5-21.8C2935.3,72.2,2838.2-87.3,2693.1-175.3z
				 M2433.7-247.8c-18.1,0-35.9,1-53.5,2.8c-31,25.8-59.5,62.3-84.4,106.9c4.8-0.7,9.9-4.6,12.8-8.1c6.5-7.8,12.6-8.8,22-6.2
				c8,2.2,16.7-0.1,24.8-3.3c4.2-1.7,8.8-2.3,15.3-3.9c-6-2.2-9.9-3.7-13.9-5.2c-3.5,0.4-6.5-1.1-9.4-2.8c-0.2,0-0.4,0-0.6-0.1
				c-0.8-0.1-1.8,0-2.6-0.1c-0.1,0-0.2,0-0.3,0c-0.1,0-0.3-0.1-0.4-0.1c-0.2-0.1-0.3-0.1-0.4-0.2c-0.2-0.1-0.4-0.1-0.5-0.3
				c-0.1-0.1-0.2-0.2-0.3-0.3c0,0,0-0.1-0.1-0.1c-0.1-0.2-0.2-0.3-0.2-0.5c0,0,0,0,0,0c-0.1-0.2-0.1-0.4-0.1-0.7
				c-0.3-2.9,3-2.6,5-3.4c1.6-0.6,4.1,0.8,4.7-2c0-0.1,0-0.1-0.1-0.1c-0.1-0.1-0.2-0.2-0.3-0.2c-0.5-0.2-1-0.4-1.4-0.6
				c0.2-0.1,0.5-0.2,0.5-0.2c0.3,0.2,0.6,0.5,0.9,0.7c0.1,0.1,0.2,0.1,0.4,0.1c0,0.1,0,0.1-0.1,0.2c3.9,4.7-2.1,4.5-3.4,6.7
				c3.4,0,6.8,0.1,10.2,0.1c2-3.5-2.8-3.5-2.7-6.4c5.3-1.4,9.5-1.2,11,5.9c1,4.9,5.4,5.6,9,3.8c3.7-1.8,2.6-5.2,0.9-8.7
				c-2.8-5.9-5.4-11.2-14.1-8.5c3.6-3.2,3.7-7.5,6.3-10.4c-1.9-0.3-4.5-0.8-4.4-2.5c0.2-2.4,3-0.9,4.7-1.1c1.2-0.6,2.3-1.2,3.5-1.7
				c1.1-0.3,2.1-0.6,3.2-0.9c4.5-1.7,8.5-2.1,9,4.4c2.8-0.2,5.7-0.3,8.5-0.5c0.7-0.4,1.5-0.7,2.2-1.1c6.4,0.1,2.3-7.5,7.1-9.3
				c6.1-2.4,12.1-4.4,18.7-4.6c43.6-1,86.1,3.8,127.3,14.3c13.6-9.5,24.9-17.8,33.6-25c1.4-1.2,2.7-2.3,3.9-3.3
				C2538-239.5,2486.8-247.8,2433.7-247.8z M2115.2,590.4c-38.6-80.2-60.7-175.2-64.1-274.6c-0.4-10.3-0.5-20.7-0.4-31
				c-42.2,17.6-79.4,37.7-110.5,59.9c26,141.7,111.7,262.8,230,336.1C2149.5,653.7,2131.1,623.4,2115.2,590.4z M2309.2,374.2
				c-1.3-15.3-12.4-23.7-24.7-29.2c-7.7-3.4-16.8-5.1-25.7-2.9c-1.6,0.4-2.7-0.6-3.6-1.9c-5.1-8.8-12.1-10.4-21.1-5
				c0.2-3.1,0-5.8-4.3-5.6c-2.6,0.1-5.9,1.8-7.5-2.1c2.7-7.2-0.6-18.7-6.3-26c-6.1,7.3-10.5,12.8-16.8,20.7c0,0.1,0,0.1,0,0.2
				c2.3,66.8,10.9,130.6,25,188.3c0.2-0.3,0.4-0.5,0.7-0.6c9.9-5,17.2-14.9,29.4-15.5c8.1-0.4,12.8-4.7,16.3-11.7
				c9-18.1,13.9-37.1,14-57.3c0-3.2,2.1-4.9,4.1-7.4C2298.9,405.3,2310.7,392.5,2309.2,374.2z M2896.2,287.7
				c-6.4,110-49.5,205.9-129.4,287.6c8,12.6,14.2,24.6,18.7,35.8c82.3-81,136.7-190.2,147.7-311.7
				C2921.2,295.4,2908.9,291.4,2896.2,287.7z M2635.1,672.6c-25.5,12.2-52.3,21.8-80,29.3l-16,4.6c-0.6,0.1-1.2,0.1-1.9,0.2
				c-4.8,0.3-9.6,0.9-13.9,3.3c-2.8,0.2-5.7,0.4-8.5,0.6c-4.3,0.6-8.5,1.1-12.8,1.6c-11.7,1.5-23.4,3.1-35.1,4.6
				c-3.3,0.4-6.5,0.7-9.8,1.1c-12.7-0.5-25.4-1.4-38,0.7c-3.7-1.9-7.7-1.1-11.5-1.3c-8.9-1.2-17.8-2.6-26.8-1.2
				c-0.9-0.5-1.8-1-2.7-1.5c-0.9,0.7-1.7,0.4-2.4-0.4c-2.2-0.2-4.4-0.4-6.6-0.7c-0.8-0.1-1.5-0.2-2.3-0.4c-1.1,0-2.2,0-3.2,0
				c-4.7-1.4-9.3-3.1-14.3-2.5l-38.1-8.9c-2.3-1.1-4.6-2-7.1-2.7c13.4,18.9,27.9,35.4,43.2,49c28,4.9,56.8,7.4,86.2,7.4
				c79.7,0,155.2-18.7,222.2-51.9C2651.7,694.8,2645.1,684.7,2635.1,672.6z M2557.2,237.4c-38.9-0.8-77.1-0.1-114.3,2.1
				c19,18,38.3,35.7,57.4,53.1c2,0,4.1,0.1,6.2,0.4c5,0.7,11.2-1.6,15.9-4.3c10.6-6,19.1-2.5,26.7,4.7c4.4,4.2,8.9,5.3,14.3,3.8
				c6.2-1.7,9.7,1.1,11.2,6.6c2.3,8.2,6.3,16.5-1.2,24.6c-1.8,2-3.2,5-0.4,8.6c2.5,3.2,1.8,8.7,5.1,11.7c9,8.4,13.4,18.8,16,30.1
				c44.1,42,87.3,85.9,126.2,133.7c9.2-6,10.9-14.9,7.9-25.2c-3-10.4,1.2-17.5,8.8-23.6c0.5-0.4,0.9-0.8,1.4-1
				c19.9-10.1,24.3-27.4,22.1-47.8c-0.3-2.9-0.5-5.4-2.1-8.2c-2.7-4.7-4.6-10.1-3.2-15.9c1.8-7.3-5.3-13.6-2.3-21
				c3.8-7.8,6.3-16.3,12.7-22.5c6.3-11.5,12.7-22.2,25.4-28.9c6.7-3.5,10-13.3,15.1-20c7-9.3,12.9-19.3,17.9-29.7
				C2742.1,250.5,2652,239.4,2557.2,237.4z"/>
			<path class="st0" d="M2351.2-175.4c-0.5-0.2-1-0.4-1.4-0.6c0.2-0.1,0.4-0.2,0.5-0.1C2350.7-175.9,2350.9-175.7,2351.2-175.4z"/>
			<path class="st0" d="M2351.6-175.3L2351.6-175.3c-0.2,0-0.3-0.1-0.3-0.1C2351.3-175.4,2351.5-175.3,2351.6-175.3z"/>
			<path class="st0" d="M2395.5-196.1c-0.5,1-1.1,1.4-2.2,1.1C2394-195.4,2394.7-195.7,2395.5-196.1z"/>
			<path class="st0" d="M1987,172.3c-0.6,1-1.4,1.2-2.4,0.5C1985.3,171.9,1986,171.8,1987,172.3z"/>
			<path class="st0" d="M2369.2,713.6c-0.8-0.1-1.5-0.2-2.3-0.4C2367.9,712.1,2368.6,712.7,2369.2,713.6z"/>
			<path class="st0" d="M2378.2,714.7c-0.9,0.7-1.7,0.4-2.4-0.4C2376.7,713.7,2377.5,713.8,2378.2,714.7z"/>
			<path class="st0" d="M2812,416.2c2.9,9.4,5.7,16.9,3.3,27.6c-3.6,16.2-7.6,32.2-11.6,48.2c-1.9,7.4-5.3,14.2-12,18.7
				c-4.7,3.2-9.4,3.2-11.1-2.8c-2.8-9.8-9.9-19.7,0-30c3.2-3.3,1.9-8.7,1.1-13.5c-2.2-12.2-0.2-15.7,10.8-21
				C2803.4,438,2805.2,426.6,2812,416.2z"/>
			<path class="st0" d="M2398.2-120.5c-6-3.1-14.8,1.2-19-7.7c-2.2-4.7,1.8-15.8,3.1-14.1c4.3,5.6,7.6,0,11.2,0
				c12.4-0.1,24.7-1.4,37.1-1c5.2,0.2,7.4,6.2,8.7,10.6c1.4,4.5-2.3,7.1-6.4,7.4C2421.5-124.3,2410-122.7,2398.2-120.5z"/>
			<path class="st0" d="M2570.5,43.1c-1.9-3.1,1.5-5.3,5.2-5.9c2.2-0.4,3.9,2.5,3.8,5.2c-0.2,4.6-0.4,10.8-5.5,11.2
				C2569.9,53.9,2572.3,48,2570.5,43.1z"/>
			<path class="st0" d="M2595.4,62.1c4.8-3.2,9.1-3.5,13.2-3.9c1.9-0.2,4.6-0.7,4.9,2c0.2,2.1-0.3,4.6-1.3,6.6
				c-1.1,2.2-3.2,1.9-5.2,0.9C2603.6,65.9,2600,64.3,2595.4,62.1z"/>
			<path class="st0" d="M2723.4,80.4c-2.3,4.1-4.3,6.6-8.5,5.1c-0.6-0.2-1.5-1.7-1.4-1.9C2715.7,80.3,2719.1,80.4,2723.4,80.4z"/>
		</g>
	</g>
</g>
<path class="st1" d="M3017.9,316.8c-26-11.6-54-22.8-83.4-33.4c-3.6-1.3-7.2-2.6-10.8-3.9c-2.8-1-5.6-1.9-8.4-2.9
	c-2.9-1-5.8-2-8.8-3c-3.2-1-6.3-2.1-9.5-3.1c-23.8-7.7-48.6-15-74.1-21.6c-0.5-0.1-1-0.3-1.5-0.4c-8.2-2.1-16.5-4.2-24.9-6.2
	c-8.5,2.2-13.3,1.4-15.6-3.6c-1.9-0.4-3.8-0.9-5.7-1.3c-23.1-5-46.7-9.5-70.8-13.3c-3.8-0.6-7.6-1.2-11.4-1.8
	c-2.8-0.4-5.7-0.8-8.5-1.2c-2.8-0.4-5.7-0.8-8.5-1.2c-3.3-0.5-6.7-0.9-10.1-1.3c-2.8-0.4-5.6-0.7-8.5-1c-2.3-0.3-4.6-0.5-6.9-0.8
	c-5.1-0.6-10.2-1.1-15.3-1.6c-1.9-0.2-3.9-0.4-5.8-0.6c-2.5-0.3-5.1-0.5-7.7-0.7c-2.4-0.2-4.8-0.4-7.3-0.6c-2.5-0.2-5-0.4-7.5-0.6
	c-3.8-0.3-7.6-0.5-11.3-0.8c-3.8-0.3-7.7-0.5-11.6-0.7c-2.1-0.1-4.2-0.2-6.2-0.3c-9.8-0.5-19.7-0.8-29.7-1
	c-27.8-0.6-55.1-1.3-81.9-1.3c-3.8,0-7.5,0-11.2,0.1c-3.8,0-7.6,0.1-11.4,0.2c-1.9,0-3.8,0.1-5.7,0.1c-1.9,0-3.8,0.1-5.7,0.2
	c-1.7,0-3.4,0.1-5.1,0.2c-1.7,0.1-3.4,0.1-5.1,0.2c-0.4,0-0.7,0-1.1,0c-11.5,0.5-23,1.2-34.3,2.2c-84.2,7.4-164.3,19.3-235.1,38.3
	c-0.1,0-0.2,0.1-0.3,0.1c-23.5,6.5-46,13.7-67.4,21.5c-0.4,0.2-0.9,0.3-1.3,0.5c-4.4,1.7-8.8,3.4-13.1,5.1
	c-0.2,12.5-0.1,25.1,0.4,37.7c0.1,2.7,0.2,5.4,0.3,8.1c0.5,12.5,1.4,24.8,2.5,37c16.7,180.1,96,325.2,205.5,397.7
	c17.4,1.7,36.8,3,57.6,3.9c-86.3-76.2-147.8-238.3-154.6-439.2c-0.1-1.4-0.1-2.8-0.1-4.2c0-0.9-0.1-1.7-0.1-2.6
	c13.2-16.8,17.9-22.6,35-42.7c5.2-6.1,11.5-13.5,19.6-22.9c4.4,5.2,8.7,10.3,13,15.3c8.6,10.1,16.9,19.8,25,29
	c64.8,73.8,117.1,123.1,230.5,224.7c157.2,140.8,186.4,178.9,173.9,226.9c25.8-3.9,46.8-8.1,62.4-12.6c48.3-40.9,49.8-94.4,4.3-159
	c-82.5-117.3-191.8-208.2-295.7-304.6c-10.3-9.6-20.6-19.2-30.7-28.9c8.2-0.6,16.5-1.2,24.9-1.7c37.2-2.2,75.4-2.9,114.3-2.1
	c94.8,2,184.9,13.1,266.6,31.5c25,5.6,49.1,11.9,72.4,18.8c12.6,3.7,25,7.7,37.1,11.8c67,22.7,125.5,50.8,172.6,82.9
	c9.7,5.1,19.1,10.4,28.2,15.8C3134.1,398.1,3096.9,353.9,3017.9,316.8z"/>
<path class="st1" d="M2796.3,242.5c-8.5,2.2-13.3,1.4-15.6-3.6C2786,240.1,2791.2,241.2,2796.3,242.5z"/>
<path class="st1" d="M2330.2,151.2c0.3,0.3,0.5,0.6,0.8,0.9c9.3,10.4,18.8,20.6,28.4,30.7c-77.5,6.6-150.2,19.5-215.6,37.7
	c0,0,0,0-0.1,0c-5.2,1.4-10.3,2.9-15.4,4.4c-0.6,0.2-1.2,0.3-1.8,0.5c-1.1,0.3-2.1,0.6-3.1,0.9c-22.4,6.8-47.3,15.8-60.7,20.7
	c-0.1,0-0.2,0-0.2,0.1c-4.9,1.9-9.8,3.8-14.5,5.8c-5.3,2.2-10.6,4.4-15.8,6.7c-2.6,1.1-5.2,2.3-7.7,3.4c-2.6,1.1-5.1,2.3-7.6,3.5
	c-5.5,2.5-10.9,5.1-16.2,7.8c-2,1-4,2-5.9,3c-1.8,0.9-3.5,1.8-5.3,2.7c-1.5,0.8-2.9,1.5-4.4,2.3c-2,1-4,2.1-5.9,3.2
	c-5.9,3.2-11.7,6.6-17.3,9.9c-1.3,0.8-2.6,1.6-3.9,2.4c-2.7,1.7-5.4,3.3-8,5c-1.5,0.9-3,1.9-4.4,2.8c-1.8,1.2-3.6,2.3-5.3,3.5
	c-1.6,1.1-3.3,2.2-4.9,3.3c-71.9,49.7-114.3,110.1-115.7,175.9c-0.6,30.1,7.4,59.4,22.9,87.5c0,0.2,0.1,0.3,0.2,0.5
	c-36.3-39.6-56-82.9-55-128c1.5-71.9,55.2-137,144.3-188.1c27.1-15.6,57.5-29.8,90.7-42.6c16.4-6.3,33.5-12.3,51.3-17.8
	c26.2-229.2,151.5-424.3,314.5-485.4c5.1,0.5,10.8,0.9,17,1.2c-100.4,55.1-179.8,208.2-211,395.6
	c299.1-290.8,469.5-317.4,412.4-372.4c9.3-1,17.4-2.1,23.9-3.3C2801.8-193.8,2504.8-31.1,2330.2,151.2z"/>
<g>
	<g>
		<g>
			<g>
				<g>
					<path class="st0" d="M292.8,68.3C292.8,68.3,292.8,68.3,292.8,68.3L292.8,68.3L292.8,68.3C292.8,68.3,292.9,68.3,292.8,68.3
						C292.9,68.3,292.9,68.3,292.8,68.3z M285.9,75.1C285.9,75.1,286,75.1,285.9,75.1c0.1,0.1,0.1,0.1,0.1,0.1c0,0,0-0.1,0-0.1
						C286,75.1,285.9,75.1,285.9,75.1z"/>
					<path class="st0" d="M292.8,68.2C292.8,68.2,292.9,68.2,292.8,68.2L292.8,68.2C292.9,68.3,292.9,68.3,292.8,68.2
						C292.8,68.3,292.8,68.3,292.8,68.2z"/>
					<path class="st0" d="M298.4,69c0.8,0.9,0.7,2.1-0.1,3.1c-0.5,0.7-1.5,0.8-2.1,0.3c-0.8-0.7-2.2-1-1.5-2.8
						c0.6-1.5-0.8-1.3-1.8-1.3c0-0.5,0-0.9,0-1.4c0.5-0.2,0.9-0.5,1.4-0.7c0,1,0.3,1.6,1.4,1.1c0.4-0.2,1.3,0.1,1-0.8
						c-0.1-0.3-0.7-0.4-1.1-0.6c1.8-0.7,3.3-0.8,3.6,1.8C298.4,67.8,296.9,67.4,298.4,69z"/>
					<path class="st0" d="M193,134.4c-0.4,0.9-0.8,1.8-1.2,2.7c-1.3,0.7-2.7,1.4-4.4,2.1c0.3-0.3,0.5-0.7,0.8-1
						c0.1-0.2,0.3-0.3,0.4-0.4c0.3-0.3,0.6-0.6,0.9-0.9c0.2-0.2,0.4-0.4,0.6-0.5c0.2-0.2,0.4-0.4,0.7-0.5
						C191.6,135.2,192.3,134.8,193,134.4z"/>
					<path class="st0" d="M139.6,213c-1,1.5-0.1,3.7-2.1,5.2c0-2.6,0.1-4.8,1.1-6.9C138.9,211.9,138.6,212.8,139.6,213z"/>
					<path class="st0" d="M286,75.1C286,75.1,286,75.2,286,75.1C286,75.2,286,75.2,286,75.1L286,75.1z"/>
					<path class="st0" d="M284.7,77.8c-0.1,0.1-0.2,0.2-0.3,0.3l0,0c-0.1,0-0.2,0-0.2,0c-0.3,0-0.7,0-1,0c0,0-0.1,0-0.1,0
						c-0.1,0-0.1,0-0.1,0c-0.1,0-0.1,0-0.2-0.1c-0.1,0-0.1-0.1-0.2-0.1c0,0-0.1-0.1-0.1-0.1c0,0,0,0,0,0c0-0.1-0.1-0.1-0.1-0.2
						c0,0,0,0,0,0c0-0.1,0-0.2-0.1-0.3c-0.1-1.1,1.2-1,2-1.3c0.6-0.2,1.6,0.3,1.8-0.8C287.5,77,285.2,77,284.7,77.8z"/>
					<path class="st0" d="M288.7,77.9c-0.2,0.5-0.4,1-0.6,1.4c-1.4,0.1-2.6-0.4-3.7-1.1c0.1-0.1,0.2-0.2,0.3-0.3
						C286,77.8,287.4,77.8,288.7,77.9z"/>
					<path class="st0" d="M295.7,67.3c-1.1,0.5-1.4-0.1-1.4-1.1c0.4-0.1,0.8-0.2,1.3-0.3c0.4,0.2,1,0.3,1.1,0.6
						C297,67.3,296.1,67.1,295.7,67.3z"/>
					<path class="st0" d="M292.9,66.8c0,0.5,0,0.9,0,1.4v0c0,0-0.1,0-0.1,0c-0.7-0.1-1.8-0.3-1.7-1
						C291.2,66.3,292.3,66.9,292.9,66.8z"/>
					<path class="st0" d="M205,101c3.6-2.8,7.3-5.4,11.1-8c7.9-11.5,16.5-21.8,25.7-31c-71.1,30-121.1,100.4-121.1,182.3
						c0,0.8,0,1.6,0,2.4c10.7-6.1,22.7-11.8,35.8-16.8c0.2-2.9-1.7-4.2-5.3-4c-0.9,0-1.8,0.2-2.7,0.3c-2.2,0.3-3.4,0.4-3-2.9
						c0.4-2.8,0.8-5.5,1.5-8.3c1.3-4.5-2.7-2.5-4.6-2.9c-0.3,0.4-0.6,0.5-0.9,0.2c-0.6,0.2-1.2,0.4-1.8,0.6c-1,1.5-0.1,3.7-2.1,5.2
						c0-2.6,0.1-4.8,1.1-6.9c1.1-7.2,3.1-14.1,5.1-21.1c0.3-0.9,0.5-1.8,1.7-1.9c2.3-0.1,4.2,1.4,6.6,1.4c2.6,0,3.3,2.4,4.2,4.7
						c0.9,2.1,1.8,4.3,3.1,6.3c0.9,1.3,1.6,3.2,3.6,2.3c1.7-0.8,1.1-2.5,0.7-4c-0.6-2.7-2.1-5.1-3.2-7.6c-2.5-5.3-2.1-6.7,2.2-10.4
						c3.1-2.7,6.6-4.9,9.3-8c1.4-1.6,1.7-3.6,1.1-4.5c-1.6-2.3,0.1-4.3,0.1-6.4c0.4,1.5,0.8,2.9,1.4,5.2c2.6-5.3,5.3-10,10.1-11.9
						c2.2-6.3,4.6-12.4,7.2-18.4c-1.3,0.7-2.7,1.4-4.4,2.1c0.3-0.3,0.5-0.7,0.8-1c0.1-0.2,0.3-0.3,0.4-0.4c0.3-0.3,0.6-0.6,0.9-0.9
						c0.2-0.2,0.4-0.4,0.6-0.5c0.2-0.2,0.4-0.4,0.7-0.5c0.7-0.5,1.4-0.9,2.1-1.3c2.7-6.2,5.7-12.3,8.9-18.2c1.2-2.3,2.5-4.6,3.8-6.8
						c-0.5-0.4-1-0.8-1.4-1.5c-0.9-1.3-3.3-2-2.9-3.4C201.7,103.1,203.6,102.1,205,101z M420.7,75.1c-8.9,21-37.1,44.9-71,73.5
						c0,0.5,0,1.1,0,1.6c0.1,1.8-0.8,2.5-2.5,2.4c-0.7,0-1.4-0.1-2.1-0.1c-5.1,4.3-10.2,8.6-15.3,13c0.1,0.1,0.1,0.2,0.2,0.2
						c2.5,0.9,0,4.1,2,4.8c1.7,0.7,3.9-0.4,5.3,1.6c0.5,0.7,1.5,1.6,2.3,1.3c4.3-1.8,9.9-1,12.5-6.2c1-0.3,1.1-0.7,0.3-1.4
						c0-0.4,0.1-0.9,0.1-1.4c0.8-0.6,0.2-1.5,0.4-2.2c0.1-0.1,0.3-0.3,0.3-0.5c1.4,0,2-0.7,2-2c1.2-0.7,2.4-1.5,3.7-1.9
						c1.3-0.4,2-1,1.7-2.4c-0.4-2.4,1-2.8,2.9-2.4c3.1,0.7,6.1,0.6,8.7-1.6c1.8-1.5,3.6-0.9,4.6,1c2.1,4.2,6,6.4,9.8,8.4
						c2.8,1.5,4.5,3.1,3.8,6.4c3-1.3,3-1.3,2.2-4c-0.9-3,1.6-1.4,3.1-2.1c-2.9-1.6-5.3-3.2-7.9-4.5c-3-1.4-4.3-4.2-5.7-6.8
						c-0.4-0.8-0.3-1.8,0.6-2.5c0.9-0.6,1.3,0.3,1.9,0.6c4.4,1.7,6.4,6.9,11.7,7.8c3.2,0.5,2.2,4.4,3.2,6.7c0.5,1.1,0.5,2.1,1.8,2.8
						c1.3,0.7,1.7,2.1,1.7,3.5c0,1.1,0.3,2.2,1.2,2.8c1,0.6,2.6,2.4,3-0.8c0.1-0.8,0.1-2.3,2.1-2.5c1.8-0.2,0.6-1.6-0.2-2
						c-1.8-1-2.4-2.6-3-4.3c4.2-1.1,8.5-2.3,11.9-5c0.6-0.5,1.8-2.3,1.9-3.5c0.4-2.9,3.1-4.1,4.1-6.5c1-2.5,5.7-3,7.7-1.1
						c1,1-1.3,1-0.4,2.4c2,3.2,3.1,3.3,7.5-0.3c-0.7-0.4-1.4-0.8-2.1-1.1c-0.7-0.3-1.5-0.4-2.5-0.7c2.7-1.6,5.7-1.6,8.4-2.6
						c0.2,1-0.7,1.2-1,1.7c-2.6,4.2-2.5,4.8,2,7.1c1.6,0.8,3.3,1.7,4.9,2.4c2.1,1,2.3,2.9,2.1,4.7c-0.1,1.6-2,1.1-3.1,1.4
						c-2.3,0.6-4.3-0.3-6.2-1.4c-3-1.9-6.1-2.4-9.5-0.9c-2,0.9-4,0.9-6,0.3c-1.2-0.4-2.7-1.6-3.8,0.6c-0.3,0.7-1.7,0-2.6-0.3
						c-3.1-0.9-3.6-0.5-3.4,2.8c0.1,1.5,0.2,2.9-1,4.2c-1.4,1.6-0.9,3.7,0.2,5.1c1,1.2,2,2.6,4.4,2.7c5,0.2,9.9-0.6,14.8-1.2
						c2.9-0.3,3.5,0.8,3,3.3c-0.6,3.3-1.1,6.6-3.1,9.4c-1.3,1.8-2.9,3.3-5.1,1.4c-1.6-1.3-3.6-0.9-4.6-0.2c-4.4,2.9-8.3,0.1-12.1-1
						c-2-0.5-4.2-1.5-6.2-2.6c-2.7-1.6-5.7,0.2-6.1,3.2c-0.3,2.7-1.8,2.8-3.9,2.4c-1.9-0.4-3.4-1.4-4.9-2.4
						c-3.7-2.4-7.1-5.1-11.6-5.8c-1.2-0.2-2.7-1.2-1.8-2.7c1.3-2.4,0.3-5.1,1.7-8.1c-9.8,2-19.8-0.9-28.7,4.6
						c-1.8,1.1-3.9,1.3-6,0.9c-3.2-0.6-5.7,0.6-8.1,2.7c-3.7,3.2-7.1,6.4-8,11.6c-0.4,2.1-2.3,3.4-4,4.6c-3.7,2.5-6.3,5.6-7.3,10.1
						c-0.2,0.8-0.4,1.6-0.9,2.2c-2.2,2.8-3.5,5.8-3.7,8.9c11.9-0.2,24,0,36.1,0.3c34.1,0.7,66.8,5.8,96.8,13.4
						c-1.8-4.6-6.4-8.2-4.9-13.8c0.1-0.4-0.2-1.2-0.5-1.6c-3.9-4.3-4.3-10.3-7.3-14.9c-1.8-2.7,1.9-2.5,2-4.3
						c2.5,5.5,5.8,10.5,8.1,16c1.5,3.7,3.1,7.2,5.6,10.2c2.6,3.2,4.3,6.7,5.1,10.6c5.8,1.6,11.4,3.3,17,5c2.2-1.3,4.2-2.9,6-4.9
						c2.5-2.8,6.3-3.8,9.1-6.2c1.4-1.2,2.9-2.3,3-4.3c0.1-2,2.2-2.6,2.9-4.3c1.3-3.2,0.7-5.7-2-7.6c-2-1.4-3.7-2.8-4.5-5.3
						c-0.7-2.3-2.1-1.9-3.3-0.2c-5,7-5.9,6.9-10.2-0.6c-1.3-2.3-2.8-4.5-4-6.8c-0.7-1.4-1.4-2.5,0.4-4.1c2.5-2.2,3.4-1.7,4.4,1.1
						c0.6,1.7,1.5,3.3,2.8,4.7c2,2.2,4.3,3,7.1,1.4c1.3-0.8,2.9-0.9,3.6,0.6c1.7,3.6,4.9,4,8.1,4.2c2.3,0.2,2.8,1.3,3.2,3.2
						c2.4,13.8,3.6,27.1,3.5,40c5.1,2,10.1,4.1,14.9,6.2c0.1-2.8,0.2-5.7,0.2-8.6C516.2,172.7,477.9,109.8,420.7,75.1z M318.4,46.6
						c-7.1,0-14.2,0.4-21.1,1.1c-12.2,10.2-23.5,24.6-33.3,42.2c1.9-0.3,3.9-1.8,5-3.2c2.6-3.1,5-3.5,8.7-2.4c3.2,0.9,6.6,0,9.8-1.3
						c1.6-0.7,3.4-0.9,6-1.5c-2.4-0.9-3.9-1.5-5.5-2.1c-1.4,0.1-2.6-0.4-3.7-1.1c-0.1,0-0.2,0-0.2,0c-0.3,0-0.7,0-1,0
						c0,0-0.1,0-0.1,0c0,0-0.1,0-0.1,0c-0.1,0-0.1,0-0.2-0.1c-0.1,0-0.1-0.1-0.2-0.1c0,0-0.1-0.1-0.1-0.1c0,0,0,0,0,0
						c0-0.1-0.1-0.1-0.1-0.2c0,0,0,0,0,0c0-0.1,0-0.2-0.1-0.3c-0.1-1.1,1.2-1,2-1.3c0.6-0.2,1.6,0.3,1.8-0.8c0,0,0,0,0,0
						c0,0-0.1-0.1-0.1-0.1c-0.2-0.1-0.4-0.1-0.6-0.2c0.1,0,0.2-0.1,0.2-0.1c0.1,0.1,0.2,0.2,0.4,0.3c0,0,0.1,0,0.1,0
						c0,0,0,0.1,0,0.1c1.5,1.9-0.8,1.8-1.3,2.7c1.3,0,2.7,0,4,0c0.8-1.4-1.1-1.4-1.1-2.5c2.1-0.6,3.7-0.5,4.3,2.3
						c0.4,2,2.1,2.2,3.5,1.5c1.4-0.7,1-2,0.3-3.4c-1.1-2.3-2.1-4.4-5.6-3.3c1.4-1.3,1.5-3,2.5-4.1c-0.7-0.1-1.8-0.3-1.7-1
						c0.1-1,1.2-0.3,1.8-0.4c0.5-0.2,0.9-0.5,1.4-0.7c0.4-0.1,0.8-0.2,1.3-0.3c1.8-0.7,3.4-0.8,3.6,1.8c1.1-0.1,2.2-0.1,3.4-0.2
						c0.3-0.2,0.6-0.3,0.9-0.4c2.5,0,0.9-3,2.8-3.7c2.4-0.9,4.8-1.8,7.4-1.8c17.2-0.4,33.9,1.5,50.2,5.6c5.4-3.8,9.8-7,13.2-9.9
						c0.6-0.5,1.1-0.9,1.5-1.3C359.5,49.8,339.3,46.6,318.4,46.6z M192.8,377c-15.2-31.6-23.9-69.1-25.3-108.3
						c-0.1-4.1-0.2-8.2-0.2-12.2c-16.6,6.9-31.3,14.9-43.6,23.6c10.2,55.9,44,103.6,90.7,132.5C206.4,401.9,199.1,390,192.8,377z
						 M269.3,291.8c-0.5-6.1-4.9-9.3-9.7-11.5c-3-1.4-6.6-2-10.1-1.1c-0.6,0.2-1.1-0.2-1.4-0.8c-2-3.4-4.8-4.1-8.3-2
						c0.1-1.2,0-2.3-1.7-2.2c-1,0-2.3,0.7-3-0.8c1.1-2.9-0.2-7.4-2.5-10.3c-2.4,2.9-4.1,5-6.6,8.2c0,0,0,0.1,0,0.1
						c0.9,26.3,4.3,51.5,9.9,74.3c0.1-0.1,0.2-0.2,0.3-0.3c3.9-2,6.8-5.9,11.6-6.1c3.2-0.1,5.1-1.9,6.4-4.6
						c3.6-7.1,5.5-14.6,5.5-22.6c0-1.3,0.8-1.9,1.6-2.9C265.2,304,269.9,299,269.3,291.8z M500.8,257.7
						c-2.5,43.4-19.5,81.2-51,113.4c3.2,5,5.6,9.7,7.4,14.1c32.4-31.9,53.9-75,58.2-122.9C510.6,260.7,505.7,259.1,500.8,257.7z
						 M397.8,409.4c-10.1,4.8-20.6,8.6-31.5,11.6l-6.3,1.8c-0.2,0-0.5,0.1-0.8,0.1c-1.9,0.1-3.8,0.4-5.5,1.3
						c-1.1,0.1-2.2,0.2-3.3,0.3c-1.7,0.2-3.4,0.4-5.1,0.6c-4.6,0.6-9.2,1.2-13.8,1.8c-1.3,0.2-2.6,0.3-3.9,0.4c-5-0.2-10-0.6-15,0.3
						c-1.4-0.7-3-0.4-4.5-0.5c-3.5-0.5-7-1-10.6-0.5c-0.3-0.2-0.7-0.4-1.1-0.6c-0.4,0.3-0.7,0.2-0.9-0.1c-0.9-0.1-1.7-0.2-2.6-0.3
						c-0.3,0-0.6-0.1-0.9-0.1c-0.4,0-0.9,0-1.3,0c-1.8-0.6-3.7-1.2-5.6-1l-15-3.5c-0.9-0.4-1.8-0.8-2.8-1.1c5.3,7.5,11,14,17,19.3
						c11,1.9,22.4,2.9,34,2.9c31.4,0,61.2-7.4,87.6-20.5C404.4,418.2,401.7,414.2,397.8,409.4z M367.1,237.8
						c-15.3-0.3-30.4,0-45.1,0.8c7.5,7.1,15.1,14.1,22.6,20.9c0.8,0,1.6,0,2.4,0.2c2,0.3,4.4-0.6,6.3-1.7c4.2-2.4,7.5-1,10.5,1.9
						c1.7,1.7,3.5,2.1,5.6,1.5c2.4-0.7,3.8,0.4,4.4,2.6c0.9,3.3,2.5,6.5-0.5,9.7c-0.7,0.8-1.3,2-0.1,3.4c1,1.3,0.7,3.4,2,4.6
						c3.6,3.3,5.3,7.4,6.3,11.9c17.4,16.6,34.4,33.9,49.8,52.7c3.6-2.4,4.3-5.9,3.1-9.9c-1.2-4.1,0.5-6.9,3.4-9.3
						c0.2-0.2,0.4-0.3,0.6-0.4c7.9-4,9.6-10.8,8.7-18.8c-0.1-1.1-0.2-2.1-0.8-3.2c-1.1-1.9-1.8-4-1.3-6.3c0.7-2.9-2.1-5.4-0.9-8.3
						c1.5-3.1,2.5-6.4,5-8.9c2.5-4.5,5-8.7,10-11.4c2.6-1.4,3.9-5.2,5.9-7.9c2.8-3.7,5.1-7.6,7-11.7
						C440,243,404.5,238.6,367.1,237.8z"/>
					<path class="st0" d="M285.9,75.1c-0.2-0.1-0.4-0.2-0.6-0.2c0.1,0,0.2-0.1,0.2-0.1C285.7,74.9,285.8,75,285.9,75.1z"/>
					<path class="st0" d="M286,75.1L286,75.1c-0.1,0-0.1,0-0.1-0.1C285.9,75.1,286,75.1,286,75.1z"/>
					<path class="st0" d="M303.3,66.9c-0.2,0.4-0.4,0.6-0.9,0.4C302.8,67.2,303,67.1,303.3,66.9z"/>
					<path class="st0" d="M142.3,212.2c-0.3,0.4-0.6,0.5-0.9,0.2C141.6,212,141.9,212,142.3,212.2z"/>
					<path class="st0" d="M293,425.6c-0.3,0-0.6-0.1-0.9-0.1C292.5,425,292.7,425.2,293,425.6z"/>
					<path class="st0" d="M296.5,426c-0.4,0.3-0.7,0.2-0.9-0.2C295.9,425.6,296.3,425.6,296.5,426z"/>
					<path class="st0" d="M467.6,308.3c1.2,3.7,2.2,6.7,1.3,10.9c-1.4,6.4-3,12.7-4.6,19c-0.7,2.9-2.1,5.6-4.7,7.4
						c-1.9,1.3-3.7,1.2-4.4-1.1c-1.1-3.9-3.9-7.8,0-11.8c1.3-1.3,0.8-3.4,0.4-5.3c-0.9-4.8-0.1-6.2,4.3-8.3
						C464.1,316.9,464.9,312.4,467.6,308.3z"/>
					<path class="st0" d="M304.4,96.7c-2.4-1.2-5.9,0.5-7.5-3c-0.9-1.9,0.7-6.2,1.2-5.6c1.7,2.2,3,0,4.4,0c4.9,0,9.7-0.5,14.6-0.4
						c2,0.1,2.9,2.4,3.4,4.2c0.5,1.8-0.9,2.8-2.5,2.9C313.6,95.2,309.1,95.9,304.4,96.7z"/>
					<path class="st0" d="M372.4,161.2c-0.8-1.2,0.6-2.1,2-2.3c0.8-0.1,1.5,1,1.5,2.1c-0.1,1.8-0.2,4.2-2.2,4.4
						C372.1,165.5,373.1,163.2,372.4,161.2z"/>
					<path class="st0" d="M382.2,168.7c1.9-1.3,3.6-1.4,5.2-1.6c0.7-0.1,1.8-0.3,1.9,0.8c0.1,0.8-0.1,1.8-0.5,2.6
						c-0.4,0.9-1.3,0.7-2.1,0.4C385.4,170.2,384,169.6,382.2,168.7z"/>
					<path class="st0" d="M432.6,175.9c-0.9,1.6-1.7,2.6-3.4,2c-0.3-0.1-0.6-0.7-0.5-0.8C429.6,175.9,430.9,175.9,432.6,175.9z"/>
				</g>
			</g>
		</g>
		<path class="st1" d="M548.7,269.1c-10.3-4.6-21.3-9-32.9-13.2c-1.4-0.5-2.8-1-4.3-1.5c-1.1-0.4-2.2-0.8-3.3-1.1
			c-1.1-0.4-2.3-0.8-3.5-1.2c-1.3-0.4-2.5-0.8-3.8-1.2c-9.4-3-19.1-5.9-29.2-8.5c-0.2-0.1-0.4-0.1-0.6-0.2c-3.2-0.8-6.5-1.6-9.8-2.4
			c-3.4,0.9-5.2,0.6-6.2-1.4c-0.7-0.2-1.5-0.3-2.2-0.5c-9.1-2-18.4-3.7-27.9-5.2c-1.5-0.2-3-0.5-4.5-0.7c-1.1-0.2-2.2-0.3-3.4-0.5
			c-1.1-0.2-2.2-0.3-3.4-0.5c-1.3-0.2-2.6-0.3-4-0.5c-1.1-0.1-2.2-0.3-3.3-0.4c-0.9-0.1-1.8-0.2-2.7-0.3c-2-0.2-4-0.4-6.1-0.6
			c-0.8-0.1-1.5-0.1-2.3-0.2c-1-0.1-2-0.2-3-0.3c-1-0.1-1.9-0.2-2.9-0.2c-1-0.1-2-0.2-3-0.2c-1.5-0.1-3-0.2-4.5-0.3
			c-1.5-0.1-3-0.2-4.6-0.3c-0.8,0-1.6-0.1-2.5-0.1c-3.9-0.2-7.8-0.3-11.7-0.4c-10.9-0.2-21.7-0.5-32.3-0.5c-1.5,0-3,0-4.4,0
			c-1.5,0-3,0-4.5,0.1c-0.8,0-1.5,0-2.2,0.1c-0.8,0-1.5,0-2.2,0.1c-0.7,0-1.4,0-2,0.1c-0.7,0-1.4,0-2,0.1c-0.1,0-0.3,0-0.4,0
			c-4.5,0.2-9.1,0.5-13.5,0.9c-33.2,2.9-64.8,7.6-92.7,15.1c0,0-0.1,0-0.1,0c-9.3,2.6-18.1,5.4-26.6,8.5c-0.2,0.1-0.4,0.1-0.5,0.2
			c-1.7,0.7-3.4,1.3-5.1,2c-0.1,4.9,0,9.9,0.1,14.9c0,1.1,0.1,2.1,0.1,3.2c0.2,4.9,0.5,9.8,1,14.6c6.6,71,37.8,128.2,81,156.8
			c6.9,0.7,14.5,1.2,22.7,1.5c-34-30.1-58.3-93.9-61-173.1c0-0.6,0-1.1,0-1.6c0-0.3,0-0.7,0-1c5.2-6.6,7.1-8.9,13.8-16.8
			c2.1-2.4,4.5-5.3,7.7-9c1.7,2.1,3.4,4.1,5.1,6c3.4,4,6.7,7.8,9.9,11.4c25.5,29.1,46.2,48.6,90.9,88.6c62,55.5,73.5,70.5,68.6,89.4
			c10.2-1.5,18.5-3.2,24.6-5c19.1-16.1,19.6-37.2,1.7-62.7c-32.5-46.2-75.6-82.1-116.6-120.1c-4.1-3.8-8.1-7.6-12.1-11.4
			c3.3-0.3,6.5-0.5,9.8-0.7c14.7-0.9,29.7-1.2,45.1-0.8c37.4,0.8,72.9,5.2,105.1,12.4c9.8,2.2,19.4,4.7,28.6,7.4
			c5,1.5,9.9,3,14.6,4.6c26.4,9,49.5,20,68,32.7c3.8,2,7.5,4.1,11.1,6.2C594.5,301.2,579.9,283.7,548.7,269.1z"/>
		<path class="st1" d="M461.4,239.8c-3.4,0.9-5.2,0.6-6.2-1.4C457.3,238.9,459.3,239.3,461.4,239.8z"/>
		<path class="st1" d="M277.6,203.8c0.1,0.1,0.2,0.2,0.3,0.3c3.7,4.1,7.4,8.1,11.2,12.1c-38.6,3.3-74.1,10.6-104.7,20.9
			c-0.5-0.4-0.9-0.4-1.5-0.1c-0.7,0.4-1.5,0.9-2.2,1.3c-1.4,0.5-2.8,1-4.1,1.5c-0.5,0-1,0-1.6-0.1c-0.3-0.1-0.9,0.5-0.9,0.8
			c0,0.1,0,0.2-0.1,0.2c-2.6,1-5.2,2-7.7,3c-2.1,0.9-4.2,1.7-6.2,2.6c-1,0.4-2,0.9-3,1.3c-1,0.5-2,0.9-3,1.4c-2.2,1-4.3,2-6.4,3.1
			c-0.8,0.4-1.6,0.8-2.3,1.2c-0.7,0.4-1.4,0.7-2.1,1.1c-0.6,0.3-1.1,0.6-1.7,0.9c-0.8,0.4-1.6,0.8-2.3,1.3c-2.3,1.3-4.6,2.6-6.8,3.9
			c-0.5,0.3-1,0.6-1.5,0.9c-1.1,0.7-2.1,1.3-3.2,2c-0.6,0.4-1.2,0.7-1.7,1.1c-0.7,0.5-1.4,0.9-2.1,1.4c-0.7,0.4-1.3,0.9-1.9,1.3
			c-28.3,19.6-45.1,43.4-45.6,69.3c-0.3,11.9,2.9,23.4,9,34.5c0,0.1,0,0.1,0.1,0.2c-14.3-15.6-22.1-32.7-21.7-50.5
			c0.6-28.3,21.8-54,56.9-74.2c10.7-6.1,22.7-11.8,35.8-16.8c6.5-2.5,13.2-4.8,20.2-7c10.3-90.4,59.7-167.3,124-191.4
			c2,0.2,4.3,0.4,6.7,0.5c-39.6,21.7-70.9,82.1-83.2,155.9C342,73.3,409.2,62.8,386.7,41.2c3.7-0.4,6.9-0.8,9.4-1.3
			C463.5,67.8,346.4,132,277.6,203.8z"/>
	</g>
	<g>
		<path class="st0" d="M637.5,315.5l-2.1,1.5l-15-12.6l-0.3,0.3v12h-2.5v-26.4h2.5v11.1c2.3-1.9,4.7-3.8,7.1-5.7s4.7-3.8,7.1-5.7
			l1.8,1.6l-13.6,11.1L637.5,315.5z"/>
		<path class="st0" d="M657.3,295.5c1.6,0,3.1,0.3,4.6,0.8s2.7,1.3,3.7,2.3c1.1,1,1.9,2.1,2.5,3.4c0.6,1.3,0.9,2.7,0.9,4.2
			c0,1.5-0.3,2.9-0.9,4.2s-1.5,2.4-2.5,3.4c-1.1,1-2.3,1.7-3.7,2.3s-3,0.8-4.6,0.8c-1.6,0-3.2-0.3-4.6-0.8c-1.4-0.6-2.7-1.3-3.8-2.3
			c-1.1-1-1.9-2.1-2.6-3.4s-0.9-2.7-0.9-4.2c0-1.5,0.3-2.9,0.9-4.2c0.6-1.3,1.5-2.5,2.6-3.4c1.1-1,2.3-1.8,3.8-2.3
			C654.1,295.8,655.7,295.5,657.3,295.5z M666.6,306.2c0-1.2-0.2-2.3-0.7-3.3c-0.5-1-1.2-1.9-2-2.7c-0.9-0.8-1.8-1.4-3-1.8
			c-1.1-0.4-2.3-0.7-3.6-0.7c-1.3,0-2.5,0.2-3.7,0.7c-1.1,0.4-2.1,1-3,1.8c-0.8,0.8-1.5,1.7-2,2.7c-0.5,1-0.7,2.1-0.7,3.3
			c0,1.2,0.2,2.3,0.7,3.3c0.5,1,1.1,1.9,2,2.7c0.8,0.8,1.8,1.4,3,1.8c1.1,0.4,2.4,0.7,3.7,0.7c1.3,0,2.5-0.2,3.6-0.7
			c1.1-0.4,2.1-1,3-1.8c0.9-0.8,1.5-1.6,2-2.7C666.3,308.5,666.6,307.4,666.6,306.2z"/>
		<path class="st0" d="M688,317c-1.3,0-2.5-0.2-3.7-0.7c-1.1-0.4-2.1-1-3-1.8c-0.9-0.7-1.5-1.6-2-2.6c-0.5-1-0.7-2.1-0.7-3.2v-13.1
			h2.5v13.1c0,0.8,0.2,1.6,0.5,2.3c0.4,0.7,0.9,1.3,1.5,1.9c0.6,0.5,1.4,1,2.2,1.3c0.8,0.3,1.7,0.5,2.7,0.5c0.9,0,1.8-0.2,2.7-0.5
			c0.8-0.3,1.6-0.7,2.2-1.3c0.6-0.5,1.1-1.2,1.4-1.9c0.4-0.7,0.5-1.5,0.5-2.3v-13.1h2.5v13.1c0,1.1-0.3,2.2-0.7,3.2
			c-0.5,1-1.2,1.9-2,2.6c-0.8,0.7-1.8,1.3-3,1.8C690.5,316.7,689.3,317,688,317z"/>
		<path class="st0" d="M716.9,295.7c0.9,0,1.7,0.2,2.4,0.5s1.4,0.7,1.9,1.3s0.9,1.1,1.3,1.8c0.3,0.7,0.5,1.4,0.5,2.1
			c0,0.8-0.2,1.6-0.6,2.4c-0.4,0.8-1,1.4-1.7,2c0.9,0.5,1.6,1.3,2.2,2.2c0.5,0.9,0.8,1.9,0.8,2.9c0,0.8-0.2,1.6-0.5,2.3
			c-0.3,0.7-0.8,1.4-1.4,1.9c-0.6,0.5-1.3,1-2.1,1.3c-0.8,0.3-1.6,0.5-2.5,0.5h-9.3v-21H716.9z M720.5,301.3c0-1-0.3-1.8-1-2.4
			c-0.7-0.7-1.5-1-2.6-1h-6.5v6.8h6.5c1,0,1.9-0.3,2.6-1C720.1,303,720.5,302.2,720.5,301.3z M717.2,314.4c0.6,0,1.1-0.1,1.6-0.3
			c0.5-0.2,0.9-0.5,1.2-0.8c0.4-0.3,0.6-0.7,0.8-1.2c0.2-0.4,0.3-0.9,0.3-1.5c0-0.5-0.1-1-0.3-1.5c-0.2-0.5-0.5-0.9-0.8-1.2
			c-0.4-0.3-0.8-0.6-1.2-0.8c-0.5-0.2-1-0.3-1.6-0.3h-6.8v7.5H717.2z"/>
		<path class="st0" d="M742.4,295.7c0.9,0,1.7,0.2,2.4,0.5s1.4,0.7,1.9,1.3s0.9,1.1,1.3,1.8c0.3,0.7,0.5,1.4,0.5,2.1
			c0,0.8-0.2,1.6-0.6,2.4c-0.4,0.8-1,1.4-1.7,2c0.9,0.5,1.6,1.3,2.2,2.2c0.5,0.9,0.8,1.9,0.8,2.9c0,0.8-0.2,1.6-0.5,2.3
			c-0.3,0.7-0.8,1.4-1.4,1.9c-0.6,0.5-1.3,1-2.1,1.3c-0.8,0.3-1.6,0.5-2.5,0.5h-9.3v-21H742.4z M746,301.3c0-1-0.3-1.8-1-2.4
			c-0.7-0.7-1.5-1-2.6-1h-6.5v6.8h6.5c1,0,1.9-0.3,2.6-1C745.6,303,746,302.2,746,301.3z M742.7,314.4c0.6,0,1.1-0.1,1.6-0.3
			c0.5-0.2,0.9-0.5,1.2-0.8c0.4-0.3,0.6-0.7,0.8-1.2c0.2-0.4,0.3-0.9,0.3-1.5c0-0.5-0.1-1-0.3-1.5c-0.2-0.5-0.5-0.9-0.8-1.2
			c-0.4-0.3-0.8-0.6-1.2-0.8c-0.5-0.2-1-0.3-1.6-0.3h-6.8v7.5H742.7z"/>
		<path class="st0" d="M765.1,295c1.6,3.4,3.2,6.9,4.9,10.5c1.7,3.7,3.3,7.2,4.9,10.8l-2.2,0.6l-3.7-7.8h-7.4
			c-0.6,1.3-1.2,2.6-1.8,3.9c-0.6,1.3-1.2,2.6-1.8,3.9l-2.4-0.6L765.1,295z M767.9,307.1c-0.5-1.1-0.9-2.2-1.4-3.2
			c-0.5-1-0.9-2.1-1.4-3.3c-0.2,0.4-0.4,0.8-0.5,1.2c-0.2,0.4-0.4,0.9-0.6,1.4c-0.2,0.5-0.4,1.1-0.7,1.7c-0.3,0.6-0.6,1.4-0.9,2.2
			H767.9z"/>
		<path class="st0" d="M810.6,290.4c2,0,3.9,0.3,5.6,1c1.7,0.7,3.3,1.6,4.6,2.8s2.3,2.6,3.1,4.2c0.8,1.6,1.1,3.3,1.1,5.1
			c0,1.8-0.4,3.5-1.1,5.1c-0.8,1.6-1.8,3-3.1,4.2s-2.8,2.1-4.6,2.8c-1.7,0.7-3.6,1-5.6,1h-9v-26.4H810.6z M822.6,303.6
			c0-1.5-0.3-2.9-0.9-4.2c-0.6-1.3-1.5-2.5-2.6-3.5c-1.1-1-2.4-1.8-3.8-2.3c-1.5-0.6-3-0.9-4.7-0.9h-6.4v21.7h6.4
			c1.6,0,3.2-0.3,4.7-0.8s2.7-1.3,3.8-2.3c1.1-1,1.9-2.1,2.6-3.4C822.3,306.5,822.6,305.1,822.6,303.6z"/>
		<path class="st0" d="M835.3,295.7v21h-2.5v-21H835.3z"/>
		<path class="st0" d="M859.8,310.8c0,1-0.2,1.9-0.7,2.6c-0.5,0.8-1.1,1.4-1.8,1.9s-1.7,0.9-2.8,1.2c-1.1,0.3-2.2,0.4-3.3,0.4
			c-0.5,0-1,0-1.7-0.1c-0.6-0.1-1.2-0.2-1.9-0.3c-0.7-0.1-1.3-0.3-2-0.4c-0.6-0.1-1.2-0.3-1.8-0.5l0.7-2c1,0.2,2.1,0.4,3.2,0.6
			c1.1,0.2,2,0.3,2.8,0.3h1.4c0.7,0,1.4-0.1,2.1-0.3c0.7-0.2,1.2-0.4,1.8-0.8c0.5-0.3,0.9-0.8,1.2-1.3c0.3-0.5,0.4-1.1,0.4-1.8
			c0-0.3-0.1-0.6-0.2-1c-0.1-0.3-0.3-0.6-0.5-0.8c-0.3-0.3-0.6-0.6-1-0.8c-0.4-0.2-0.8-0.4-1.3-0.5c-0.5-0.1-0.9-0.3-1.4-0.3
			c-0.5-0.1-0.9-0.1-1.3-0.1c-0.8,0-1.6-0.1-2.5-0.2c-0.8-0.1-1.6-0.4-2.4-0.8c-0.8-0.5-1.5-1.1-2.1-2c-0.6-0.8-0.9-1.7-0.9-2.7
			c0-1.4,0.6-2.7,1.8-3.7c1.2-1,2.7-1.7,4.7-2.1c0.3-0.1,0.8-0.1,1.4-0.2c0.6-0.1,1.1-0.1,1.7-0.1c0.4,0,0.8,0,1.3,0.1
			c0.5,0.1,1,0.2,1.5,0.3c0.5,0.1,1.1,0.3,1.6,0.4c0.5,0.2,1,0.3,1.4,0.4l-0.4,1c-0.1,0.1-0.1,0.2-0.1,0.3c0,0.1-0.1,0.3-0.1,0.6
			c-1.2-0.4-2.3-0.6-3.2-0.8s-1.8-0.2-2.8-0.2c-0.7,0-1.4,0.1-2.2,0.2c-0.7,0.1-1.4,0.4-2,0.7c-0.6,0.3-1.1,0.7-1.5,1.2
			c-0.4,0.5-0.6,1.1-0.6,1.7c0,0.4,0.2,0.9,0.5,1.4s0.7,0.9,1.2,1.3c0.5,0.3,1,0.5,1.5,0.6s1.1,0.1,1.6,0.2l0,0h0.3c0,0,0.1,0,0.1,0
			c0,0,0,0,0.1,0h0h0h0c0.8,0.1,1.7,0.2,2.7,0.4c0.9,0.2,1.8,0.5,2.7,1c0.8,0.5,1.5,1.2,2,2C859.5,309.1,859.8,309.9,859.8,310.8z"
			/>
		<path class="st0" d="M885.9,295.7v2.2h-8.7v18.8h-2.5v-18.8h-8.8v-2.2H885.9z"/>
		<path class="st0" d="M896.2,308.9v7.8h-2.4v-21h6.7c1,0,2,0.2,2.9,0.6c0.9,0.4,1.6,0.9,2.3,1.5c0.6,0.6,1.1,1.3,1.5,2.1
			c0.4,0.8,0.5,1.6,0.5,2.5c0,1.3-0.3,2.5-1,3.5c-0.7,1.1-1.6,1.8-3,2.3l2.1,2.4c0.4,0.4,0.8,0.9,1.2,1.4c0.5,0.5,0.9,1.1,1.4,1.7
			c0.5,0.6,0.9,1.1,1.4,1.7c0.4,0.5,0.8,1,1.1,1.4h-3.2l-6.7-7.8H896.2z M896.2,297.9v8.6h4.3c0.6,0,1.3-0.1,1.8-0.3
			s1.1-0.5,1.5-0.9c0.4-0.4,0.8-0.8,1-1.4s0.4-1.1,0.4-1.7c0-0.6-0.1-1.2-0.4-1.7c-0.2-0.5-0.6-1-1-1.4c-0.4-0.4-0.9-0.7-1.5-0.9
			s-1.2-0.3-1.8-0.3H896.2z"/>
		<path class="st0" d="M925.4,317c-1.3,0-2.5-0.2-3.7-0.7c-1.1-0.4-2.1-1-3-1.8c-0.9-0.7-1.5-1.6-2-2.6c-0.5-1-0.7-2.1-0.7-3.2
			v-13.1h2.5v13.1c0,0.8,0.2,1.6,0.5,2.3c0.4,0.7,0.9,1.3,1.5,1.9c0.6,0.5,1.4,1,2.2,1.3c0.8,0.3,1.7,0.5,2.7,0.5
			c0.9,0,1.8-0.2,2.7-0.5c0.8-0.3,1.6-0.7,2.2-1.3c0.6-0.5,1.1-1.2,1.4-1.9c0.4-0.7,0.5-1.5,0.5-2.3v-13.1h2.5v13.1
			c0,1.1-0.3,2.2-0.7,3.2c-0.5,1-1.2,1.9-2,2.6c-0.8,0.7-1.8,1.3-3,1.8C927.8,316.7,926.6,317,925.4,317z"/>
		<path class="st0" d="M954.2,295.7c0.9,0,1.7,0.2,2.4,0.5s1.4,0.7,1.9,1.3s0.9,1.1,1.3,1.8c0.3,0.7,0.5,1.4,0.5,2.1
			c0,0.8-0.2,1.6-0.6,2.4c-0.4,0.8-1,1.4-1.7,2c0.9,0.5,1.6,1.3,2.2,2.2c0.5,0.9,0.8,1.9,0.8,2.9c0,0.8-0.2,1.6-0.5,2.3
			c-0.3,0.7-0.8,1.4-1.4,1.9c-0.6,0.5-1.3,1-2.1,1.3c-0.8,0.3-1.6,0.5-2.5,0.5h-9.3v-21H954.2z M957.8,301.3c0-1-0.3-1.8-1-2.4
			c-0.7-0.7-1.5-1-2.6-1h-6.5v6.8h6.5c1,0,1.9-0.3,2.6-1C957.5,303,957.8,302.2,957.8,301.3z M954.5,314.4c0.6,0,1.1-0.1,1.6-0.3
			c0.5-0.2,0.9-0.5,1.2-0.8c0.4-0.3,0.6-0.7,0.8-1.2c0.2-0.4,0.3-0.9,0.3-1.5c0-0.5-0.1-1-0.3-1.5c-0.2-0.5-0.5-0.9-0.8-1.2
			c-0.4-0.3-0.8-0.6-1.2-0.8c-0.5-0.2-1-0.3-1.6-0.3h-6.8v7.5H954.5z"/>
		<path class="st0" d="M979.9,317c-1.3,0-2.5-0.2-3.7-0.7c-1.1-0.4-2.1-1-3-1.8c-0.9-0.7-1.5-1.6-2-2.6c-0.5-1-0.7-2.1-0.7-3.2
			v-13.1h2.5v13.1c0,0.8,0.2,1.6,0.5,2.3c0.4,0.7,0.9,1.3,1.5,1.9c0.6,0.5,1.4,1,2.2,1.3c0.8,0.3,1.7,0.5,2.7,0.5
			c0.9,0,1.8-0.2,2.7-0.5c0.8-0.3,1.6-0.7,2.2-1.3c0.6-0.5,1.1-1.2,1.4-1.9c0.4-0.7,0.5-1.5,0.5-2.3v-13.1h2.5v13.1
			c0,1.1-0.3,2.2-0.7,3.2c-0.5,1-1.2,1.9-2,2.6c-0.8,0.7-1.8,1.3-3,1.8C982.3,316.7,981.1,317,979.9,317z"/>
		<path class="st0" d="M1016.9,295.7v2.2h-8.7v18.8h-2.5v-18.8h-8.8v-2.2H1016.9z"/>
		<path class="st0" d="M1026.9,295.7v21h-2.5v-21H1026.9z"/>
		<path class="st0" d="M1048.4,295.5c1.6,0,3.1,0.3,4.6,0.8s2.7,1.3,3.7,2.3c1.1,1,1.9,2.1,2.5,3.4c0.6,1.3,0.9,2.7,0.9,4.2
			c0,1.5-0.3,2.9-0.9,4.2s-1.5,2.4-2.5,3.4c-1.1,1-2.3,1.7-3.7,2.3s-3,0.8-4.6,0.8c-1.6,0-3.2-0.3-4.6-0.8c-1.4-0.6-2.7-1.3-3.8-2.3
			c-1.1-1-1.9-2.1-2.6-3.4s-0.9-2.7-0.9-4.2c0-1.5,0.3-2.9,0.9-4.2c0.6-1.3,1.5-2.5,2.6-3.4c1.1-1,2.3-1.8,3.8-2.3
			C1045.2,295.8,1046.8,295.5,1048.4,295.5z M1057.7,306.2c0-1.2-0.2-2.3-0.7-3.3c-0.5-1-1.2-1.9-2-2.7c-0.9-0.8-1.8-1.4-3-1.8
			c-1.1-0.4-2.3-0.7-3.6-0.7c-1.3,0-2.5,0.2-3.7,0.7c-1.1,0.4-2.1,1-3,1.8c-0.8,0.8-1.5,1.7-2,2.7c-0.5,1-0.7,2.1-0.7,3.3
			c0,1.2,0.2,2.3,0.7,3.3c0.5,1,1.1,1.9,2,2.7c0.8,0.8,1.8,1.4,3,1.8c1.1,0.4,2.4,0.7,3.7,0.7c1.3,0,2.5-0.2,3.6-0.7
			c1.1-0.4,2.1-1,3-1.8c0.9-0.8,1.5-1.6,2-2.7C1057.4,308.5,1057.7,307.4,1057.7,306.2z"/>
		<path class="st0" d="M1086.5,295.7v21.8l-15.5-16.8v15.9h-2.2v-21.5l15.4,16.8v-16.2H1086.5z"/>
		<path class="st0" d="M1123.9,289.4l12.1,27.1c-0.4,0.1-0.7,0.2-1,0.2c-0.2,0.1-0.4,0.1-0.6,0.1c-0.1,0-0.3,0.1-0.4,0.1
			c-0.1,0-0.3,0.1-0.5,0.1l-4.9-10.5h-9.7l-2.3,5.1c-0.4,0.9-0.8,1.8-1.3,2.8c-0.4,1-0.8,1.9-1.2,2.7c-0.2-0.1-0.5-0.1-0.8-0.2
			c-0.3-0.1-0.9-0.2-1.7-0.3L1123.9,289.4z M1127.6,304.5c-0.3-0.9-0.8-2.1-1.5-3.7c-0.7-1.6-1.4-3.5-2.3-5.6l-4,9.4H1127.6z"/>
		<path class="st0" d="M1157.3,297.9h-10.8v5.4h8.5v2.2h-8.5v11.1h-2.5v-21h13.3V297.9z"/>
		<path class="st0" d="M1167,308.9v7.8h-2.4v-21h6.7c1,0,2,0.2,2.9,0.6c0.9,0.4,1.6,0.9,2.3,1.5c0.6,0.6,1.1,1.3,1.5,2.1
			c0.4,0.8,0.5,1.6,0.5,2.5c0,1.3-0.3,2.5-1,3.5c-0.7,1.1-1.6,1.8-3,2.3l2.1,2.4c0.4,0.4,0.8,0.9,1.2,1.4c0.5,0.5,0.9,1.1,1.4,1.7
			c0.5,0.6,0.9,1.1,1.4,1.7c0.4,0.5,0.8,1,1.1,1.4h-3.2l-6.7-7.8H1167z M1167,297.9v8.6h4.3c0.6,0,1.3-0.1,1.8-0.3s1.1-0.5,1.5-0.9
			c0.4-0.4,0.8-0.8,1-1.4s0.4-1.1,0.4-1.7c0-0.6-0.1-1.2-0.4-1.7c-0.2-0.5-0.6-1-1-1.4c-0.4-0.4-0.9-0.7-1.5-0.9s-1.2-0.3-1.8-0.3
			H1167z"/>
		<path class="st0" d="M1191,295.7v21h-2.5v-21H1191z"/>
		<path class="st0" d="M1219.9,313.8c-1.3,1-2.7,1.8-4.1,2.3c-1.4,0.5-2.8,0.8-4.3,0.8c-1.6,0-3.2-0.3-4.6-0.8
			c-1.4-0.6-2.7-1.3-3.8-2.3c-1.1-1-1.9-2.1-2.6-3.4s-0.9-2.7-0.9-4.2c0-1.5,0.3-2.9,0.9-4.2c0.6-1.3,1.5-2.5,2.6-3.4
			c1.1-1,2.3-1.7,3.8-2.3c1.4-0.6,3-0.9,4.6-0.9c1.2,0,2.4,0.2,3.7,0.7c1.3,0.5,2.7,1.1,4.1,2l-2,1.4c-1.9-1.2-3.8-1.8-5.8-1.8
			c-1.3,0-2.5,0.2-3.6,0.7c-1.1,0.4-2.1,1-3,1.8c-0.9,0.8-1.5,1.7-2,2.7c-0.5,1-0.7,2.1-0.7,3.3c0,1.2,0.2,2.3,0.7,3.3
			c0.5,1,1.2,1.9,2,2.7c0.9,0.8,1.8,1.4,3,1.8c1.1,0.4,2.3,0.7,3.6,0.7c1.1,0,2.2-0.2,3.4-0.6c1.1-0.4,2.2-1,3.3-1.8L1219.9,313.8z"
			/>
		<path class="st0" d="M1235.7,295c1.6,3.4,3.2,6.9,4.9,10.5c1.7,3.7,3.3,7.2,4.9,10.8l-2.2,0.6l-3.7-7.8h-7.4
			c-0.6,1.3-1.2,2.6-1.8,3.9c-0.6,1.3-1.2,2.6-1.8,3.9l-2.4-0.6L1235.7,295z M1238.5,307.1c-0.5-1.1-0.9-2.2-1.4-3.2
			c-0.5-1-0.9-2.1-1.4-3.3c-0.2,0.4-0.4,0.8-0.5,1.2c-0.2,0.4-0.4,0.9-0.6,1.4c-0.2,0.5-0.4,1.1-0.7,1.7c-0.3,0.6-0.6,1.4-0.9,2.2
			H1238.5z"/>
		<path class="st0" d="M1255.9,295.7v21h-2.5v-21H1255.9z"/>
		<path class="st0" d="M1282.8,295.7v21.8l-15.5-16.8v15.9h-2.2v-21.5l15.4,16.8v-16.2H1282.8z"/>
		<path class="st0" d="M1291.5,316.7v-21h13.6v2.2H1294v5.4h7.5v2.2h-7.5v8.9h11.9v2.3H1291.5z"/>
	</g>
	<g>
		<path class="st0" d="M656.9,160.3L640,206.6c7.4-1.6,15.1-3.2,23.1-4.7l15.1-41.6H656.9z M723.9,160.3l-41.8,38.3
			c10.3-1.7,21.1-3.3,32.2-4.8l36.5-33.5H723.9z"/>
		<path class="st0" d="M845.4,163c-1.8-1.8-4.2-2.6-7.3-2.6H781c-4,0-7.9,1.4-11.7,4.2c-3.8,2.8-6.4,6.2-7.9,10.1l-5.2,14.4
			c7.3-0.7,14.7-1.4,22.2-2l2.5-6.8h43l-1.3,3.7c7.1-0.4,14.4-0.8,21.7-1.1l3-8.2c0.7-1.7,1-3.3,1-4.9
			C848.1,167,847.2,164.7,845.4,163z"/>
		<path class="st0" d="M946.7,163c-1.8-1.8-4.2-2.6-7.3-2.6h-71.3l-7.9,21.8c7.1-0.3,14.4-0.5,21.6-0.6l0.5-1.3h42.9l-0.3,0.8h1.3
			c6.7,0,13.3,0,19.9,0.1h0l2.4-6.5c0.7-1.7,1-3.3,1-4.9C949.4,167,948.5,164.7,946.7,163z"/>
		<path class="st0" d="M969.4,160.3l-7.7,21c7.1,0.1,14.2,0.3,21.2,0.5l7.8-21.5H969.4z"/>
		<path class="st0" d="M1020.7,160.3c-4,0-7.9,1.4-11.7,4.2c-3.8,2.8-6.4,6.2-7.8,10.1l-2.8,7.8c7.1,0.3,14.2,0.6,21.1,0.9l1.2-3.1
			h64.1l7.2-19.8H1020.7z"/>
		<path class="st0" d="M1170.6,160.3h-27.1l-23.9,31.2c7.5,0.9,14.8,1.8,22,2.8l5.7-7.5l0.3,8.4c8.4,1.2,16.5,2.4,24.4,3.7
			L1170.6,160.3z"/>
		<path class="st0" d="M1293.2,180.2l7.3-19.8h-64.2c-4,0-7.9,1.4-11.7,4.2c-3.8,2.8-6.4,6.2-7.8,10.1l-11.1,30.6
			c13.7,2.9,26.4,6,38,9.2h37.1l7.3-19.8h-57.1l5.4-14.4H1293.2z"/>
	</g>
	<path class="st1" d="M1281.7,227.7c-13.3-4.7-28.8-9.2-46-13.3c-9.8-2.3-20.2-4.5-31.1-6.6c-10.4-2-21.2-3.8-32.5-5.5
		c-7.9-1.2-16-2.3-24.4-3.4c-2.9-0.4-5.8-0.8-8.7-1.1c-7.3-0.9-14.7-1.7-22.2-2.5c-31-3.2-64.2-5.6-99-7c-7-0.3-14-0.5-21.1-0.7
		c-5.2-0.1-10.3-0.3-15.6-0.4c-7-0.1-14.1-0.2-21.3-0.3c-5.1,0-10.3-0.1-15.4-0.1H944c-7.1,0-14.3,0-21.3,0.1
		c-14.6,0.2-29.1,0.5-43.2,1c-7.3,0.3-14.6,0.6-21.7,0.9h0c-5.4,0.3-10.8,0.5-16.1,0.9c-7.3,0.4-14.6,0.9-21.8,1.4
		c-15.2,1.1-30,2.4-44.3,3.8c-7.6,0.8-15,1.6-22.3,2.5c-17.7,2.1-34.6,4.5-50.5,7.2c-11.9,2-23.3,4.1-34,6.4
		c-3.2,0.7-6.4,1.4-9.5,2.1c-8.2,1.9-16.1,3.8-23.5,5.8l-5.1,14l-10,27.4h21.3l34.3-31.4l11.4,31.4h27.2l-15.8-43.4
		c15.7-2.8,32.4-5.4,50-7.8L735.5,246c-0.6,1.7-0.8,3.3-0.8,4.9c0,2.8,0.9,5,2.7,6.8c1.8,1.8,4.2,2.6,7.3,2.6h57.1
		c3.9,0,7.8-1.4,11.6-4.2c3.8-2.8,6.4-6.2,7.9-10.1l16.6-45.7c5.3-0.4,10.7-0.7,16.1-1l-22.2,61H903c3.9,0,7.8-1.4,11.6-4.2
		c3.8-2.8,6.4-6.2,7.8-10.1l18.1-49.8c5.2-0.1,10.5-0.1,15.8-0.1L933,260.2h21.4l23.4-64.2c5.3,0,10.5,0.1,15.7,0.2l-1.5,4.1
		c-0.7,1.7-1.1,3.3-1.1,4.8c0,2.7,0.9,5,2.7,6.7c1.8,1.7,4.2,2.6,7.3,2.6h50l-9.3,26h-64.3l-7.2,19.8h71.3c3.9,0,7.8-1.4,11.6-4.2
		c3.8-2.8,6.4-6.2,7.9-10.1l13.7-37.1c0.5-1.7,0.7-3.3,0.7-4.9c0-1.9-0.4-3.5-1.2-4.9c12.9,0.8,25.5,1.6,37.8,2.6l-44.7,58.5h24.3
		l17.4-22.8h40.2l0.9,22.8h24.3l-1.9-52.3c10.6,1.3,20.8,2.7,30.8,4.2l-17.5,48.1h21.4l16.3-44.8c21.8,3.8,41.7,8,59.4,12.6
		C1282.3,227.9,1282,227.8,1281.7,227.7z M801.9,240.4h-43l12.4-34.1c14.4-1.6,29.2-3.1,44.5-4.4L801.9,240.4z M903.2,240.4h-42.9
		l15.4-42.3c14.2-0.7,28.7-1.2,43.4-1.5L903.2,240.4z M1124,217.6l10.5-13.8c4.5,0.4,9,0.9,13.5,1.4l0.4,12.5H1124z"/>
</g>
<path class="st0" d="M2143.7,220.4c-1,0.4-2.2,0.8-3.5,1.1c-3.8,1-7.8,2.1-11.9,3.3C2133.4,223.3,2138.5,221.9,2143.7,220.4z"/>
</svg>
